<svg width="512" height="513" viewBox="0 0 512 513" fill="none" xmlns="http://www.w3.org/2000/svg">
<rect width="512" height="512.289" fill="black"/>
<path d="M260.641 314.282C256.407 314.282 252.824 313.223 249.893 311.106C246.799 308.989 243.135 305.977 238.901 302.068C234.666 298.16 229.944 293.356 224.733 287.656C222.778 285.376 221.801 283.341 221.801 281.549C221.801 279.758 222.778 277.722 224.733 275.442C234.829 264.043 244.03 255.656 252.336 250.282C254.29 248.979 257.058 248.328 260.641 248.328C271.715 248.328 281.241 244.175 289.221 235.87C297.364 227.565 301.272 214.13 300.946 195.565C300.783 175.534 295.816 161.529 286.046 153.549C276.437 145.57 263.247 141.58 246.473 141.58H234.748C224 141.58 216.672 143.86 212.763 148.42C208.855 152.98 206.901 160.796 206.901 171.87V418.343C206.901 423.228 205.842 426.648 203.725 428.602C201.771 430.394 198.351 431.289 193.466 431.289H141.435C136.55 431.289 133.048 430.394 130.931 428.602C128.977 426.648 128 423.228 128 418.343V146.466C128 130.181 129.466 117.315 132.397 107.87C135.491 98.2621 141.354 91.4224 149.985 87.3511C158.779 83.117 171.562 81 188.336 81H246.473C293.211 81 327.816 90.201 350.29 108.603C372.763 126.842 384 154.852 384 192.633C384 220.969 378.056 244.094 366.167 262.007C354.442 279.921 339.134 293.112 320.244 301.58C301.516 310.048 281.649 314.282 260.641 314.282Z" fill="white"/>
</svg>
